<svg width="320" height="352" viewBox="0 0 320 352" fill="none" xmlns="http://www.w3.org/2000/svg">
<rect y="60" width="320" height="230" rx="4" fill="#F6F6F6"/>
<rect x="88.6396" y="77" width="144" height="43" fill="#D9D9D9"/>
<rect x="88.6396" y="154" width="144" height="43" fill="#D9D9D9"/>
<rect x="88.6396" y="231" width="144" height="43" fill="#D9D9D9"/>
<path d="M232.64 120C240.519 120 248.321 118.448 255.601 115.433C262.88 112.417 269.495 107.998 275.066 102.426C280.638 96.8549 285.057 90.2405 288.072 82.961C291.088 75.6815 292.64 67.8793 292.64 60H249.707C249.707 62.2413 249.265 64.4606 248.407 66.5312C247.55 68.6019 246.293 70.4833 244.708 72.0681C243.123 73.653 241.242 74.9101 239.171 75.7678C237.1 76.6255 234.881 77.0669 232.64 77.0669L232.64 120Z" fill="#D9D9D9"/>
<path d="M232.64 274C248.553 274 263.814 267.679 275.066 256.426C286.318 245.174 292.64 229.913 292.64 214C292.64 198.087 286.318 182.826 275.066 171.574C263.814 160.321 248.553 154 232.64 154L232.64 196.933C237.166 196.933 241.507 198.731 244.708 201.932C247.908 205.133 249.707 209.474 249.707 214C249.707 218.526 247.908 222.867 244.708 226.068C241.507 229.269 237.166 231.067 232.64 231.067L232.64 274Z" fill="#D9D9D9"/>
<path d="M88.6397 197C72.7267 197 57.4654 190.679 46.2132 179.426C34.9611 168.174 28.6396 152.913 28.6396 137C28.6396 121.087 34.9611 105.826 46.2132 94.5736C57.4654 83.3214 72.7266 77 88.6396 77L88.6396 119.933C84.1132 119.933 79.7722 121.731 76.5715 124.932C73.3708 128.133 71.5727 132.474 71.5727 137C71.5727 141.526 73.3708 145.867 76.5715 149.068C79.7722 152.269 84.1132 154.067 88.6396 154.067L88.6397 197Z" fill="#D9D9D9"/>
<path d="M28.6431 290.357C28.7276 282.478 30.363 274.693 33.4562 267.446C36.5493 260.199 41.0395 253.633 46.6704 248.121C52.3013 242.61 58.9627 238.261 66.2741 235.324C73.5855 232.387 81.4039 230.919 89.2827 231.003L88.8226 273.934C86.5814 273.91 84.3575 274.328 82.2778 275.163C80.1981 275.999 78.3033 277.236 76.7016 278.803C75.0999 280.371 73.8226 282.239 72.9428 284.3C72.0629 286.362 71.5977 288.576 71.5737 290.817L28.6431 290.357Z" fill="#D9D9D9"/>
</svg>
